<svg width="20" height="22" viewBox="0 0 20 22" fill="none" xmlns="http://www.w3.org/2000/svg">
<path d="M7.98187 13.2817C7.78109 13.2817 7.58855 13.3628 7.44658 13.5071C7.30461 13.6513 7.22485 13.847 7.22485 14.051C7.22485 14.255 7.30461 14.4507 7.44658 14.595C7.58855 14.7392 7.78109 14.8203 7.98187 14.8203H12.0193C12.22 14.8203 12.4126 14.7392 12.5546 14.595C12.6965 14.4507 12.7763 14.255 12.7763 14.051C12.7763 13.847 12.6965 13.6513 12.5546 13.5071C12.4126 13.3628 12.22 13.2817 12.0193 13.2817H7.98187Z" fill="url(#paint0_linear_3882_802)"/>
<path fill-rule="evenodd" clip-rule="evenodd" d="M14.3954 6.00092L15.5358 6.04324C15.9678 6.06595 16.3604 6.10001 16.7167 6.15265C17.7826 6.30851 18.6648 6.64501 19.2916 7.43774C19.9184 8.2315 20.0557 9.18319 19.982 10.2814C19.9113 11.3456 19.6287 12.6885 19.2774 14.3659L18.8222 16.5407C18.585 17.673 18.3922 18.5906 18.15 19.307C17.8977 20.0553 17.5646 20.6695 16.9973 21.1391C16.4301 21.6088 15.772 21.8121 15.0049 21.9081C14.268 22 13.3495 22 12.2191 22H7.78195C6.64946 22 5.73196 22 4.99514 21.9081C4.22803 21.8121 3.56993 21.6088 3.00268 21.1391C2.43441 20.6695 2.10234 20.0553 1.85 19.308C1.60775 18.5906 1.41598 17.673 1.17777 16.5417L0.722555 14.3669C0.371301 12.6885 0.0896918 11.3456 0.018028 10.2814C-0.0556546 9.18319 0.081617 8.2315 0.708424 7.43774C1.33422 6.64501 2.21639 6.30851 3.28227 6.15265C3.63857 6.10104 4.03221 6.06595 4.46321 6.04324L7.33683 6.00092H12.6642C13.0699 6.00092 14.028 5.99885 14.3954 6.00092ZM3.6739 7.66069L3.26713 8.49264C3.22181 8.5837 3.19456 8.68302 3.18695 8.7849C3.17935 8.88677 3.19154 8.98917 3.22282 9.08621C3.2541 9.18324 3.30386 9.27298 3.36922 9.35025C3.43457 9.42753 3.51424 9.49081 3.60363 9.53644C3.69302 9.58208 3.79035 9.60917 3.89003 9.61616C3.9897 9.62314 4.08974 9.60988 4.18438 9.57713C4.27902 9.54439 4.36638 9.49282 4.44143 9.42538C4.51649 9.35794 4.57774 9.27598 4.62168 9.18422L5.41603 7.55954C5.99136 7.54922 6.64744 7.54818 7.3984 7.54818H12.6026C13.3536 7.54818 14.0096 7.54818 14.585 7.55851L15.3793 9.18422C15.4699 9.36627 15.6272 9.50431 15.817 9.56827C16.0067 9.63223 16.2134 9.61692 16.3921 9.52567C16.5708 9.43443 16.707 9.27465 16.7711 9.08115C16.8351 8.88764 16.8217 8.67611 16.7339 8.49264L16.3271 7.66069L16.5027 7.68443C17.395 7.81552 17.8321 8.05396 18.1147 8.41007C18.3922 8.76102 18.5285 9.23892 18.474 10.1287H1.52701C1.4725 9.23892 1.60876 8.76102 1.88634 8.41007C2.16895 8.05396 2.606 7.81552 3.49827 7.68443L3.6739 7.66069ZM2.21639 14.1037C2.04288 13.2976 1.88103 12.489 1.7309 11.678H18.2701C18.1194 12.4889 17.9572 13.2976 17.7836 14.1037L17.3516 16.1681C17.1013 17.3603 16.9277 18.185 16.7187 18.8022C16.5169 19.4009 16.311 19.7168 16.0455 19.9356C15.7811 20.1544 15.4348 20.2948 14.8222 20.3712C14.1873 20.4507 13.3616 20.4517 12.1696 20.4517H7.8304C6.63937 20.4517 5.81372 20.4507 5.17884 20.3712C4.56515 20.2948 4.21995 20.1544 3.9555 19.9356C3.69005 19.7168 3.48313 19.3999 3.28227 18.8022C3.07333 18.185 2.89871 17.3603 2.6494 16.1681L2.21639 14.1037Z" fill="url(#paint1_linear_3882_802)"/>
<path d="M16 9C16 9 14 1 10 1C6 1 4 9 4 9" stroke="url(#paint2_linear_3882_802)" stroke-width="1.5" stroke-linecap="round" stroke-linejoin="round"/>
<defs>
<linearGradient id="paint0_linear_3882_802" x1="7.07607" y1="13.5244" x2="12.7725" y2="14.3784" gradientUnits="userSpaceOnUse">
<stop stop-color="#C09E6C"/>
<stop offset="0.426246" stop-color="#FFEBCC"/>
<stop offset="1" stop-color="#BF936B"/>
</linearGradient>
<linearGradient id="paint1_linear_3882_802" x1="-0.536013" y1="8.52381" x2="20.3912" y2="9.6106" gradientUnits="userSpaceOnUse">
<stop stop-color="#C09E6C"/>
<stop offset="0.426246" stop-color="#FFEBCC"/>
<stop offset="1" stop-color="#BF936B"/>
</linearGradient>
<linearGradient id="paint2_linear_3882_802" x1="3.67839" y1="7.73809" x2="16.2199" y2="6.95653" gradientUnits="userSpaceOnUse">
<stop stop-color="#C09E6C"/>
<stop offset="0.426246" stop-color="#FFEBCC"/>
<stop offset="1" stop-color="#BF936B"/>
</linearGradient>
</defs>
</svg>
